<svg width="1012" height="506" viewBox="0 0 1012 506" fill="none" xmlns="http://www.w3.org/2000/svg">
<path d="M391.78 399.584C389.55 399.584 387.46 398.748 385.509 397.076C383.836 395.404 383 393.454 383 391.225C383 389.274 383.558 387.463 384.672 385.791L480.415 250.782L389.271 120.79C388.435 119.397 388.017 117.585 388.017 115.356C388.017 113.127 388.853 111.176 390.526 109.504C392.198 107.832 394.149 106.997 396.379 106.997H421.464C425.645 106.997 429.408 109.365 432.753 114.102L506.336 218.598L579.502 114.102C582.289 109.365 585.912 106.997 590.372 106.997H614.203C616.433 106.997 618.384 107.832 620.056 109.504C621.729 111.176 622.565 113.127 622.565 115.356C622.565 117.864 622.007 119.675 620.892 120.79L531.003 251.2L626.327 385.791C627.442 387.463 628 389.274 628 391.225C628 393.454 627.164 395.404 625.491 397.076C623.819 398.748 621.729 399.584 619.22 399.584H593.717C589.536 399.584 585.773 397.216 582.428 392.478L504.664 284.221L427.317 392.478C424.53 397.216 420.907 399.584 416.447 399.584H391.78Z" fill="#333333"/>
<path d="M505.252 152.858L465.021 104.965L545.482 104.965L505.252 152.858Z" fill="#F21905"/>
<path d="M505.252 353.142L545.482 401.035H465.021L505.252 353.142Z" fill="#F21905"/>
</svg>
